<svg id="Capa_1" enable-background="new 0 0 512 512" height="512" viewBox="0 0 512 512" width="512" xmlns="http://www.w3.org/2000/svg"><g><g><path clip-rule="evenodd" d="m62.903 224.904c10.287 10.116 23.992 12.566 40.063-3.533 5.756-20.175 16.213-39.295 31.401-55.623l-7.608-24.449c-.028-.057-21.713.029-21.741 0-22.083 24.306-36.102 53.315-42.115 83.605z" fill="#dddaec" fill-rule="evenodd"/></g><g><path clip-rule="evenodd" d="m110.945 383.224c23.964 23.965 53.142 39.523 83.888 46.732 15.843-8.492 21.684-22.91 2.906-38.64-21.912-6.155-42.571-17.838-59.81-35.078-8.035-8.036-14.874-16.812-20.488-26.102-14.846-11.37-28.922-8.976-39.636 7.01 8.236 16.642 19.292 32.229 33.14 46.078z" fill="#dddaec" fill-rule="evenodd"/></g><g><path clip-rule="evenodd" d="m194.833 429.956v33.026l40.177 11.199 40.12-11.199v-32.998-23.68c0-5.272-1.026-10.344-2.906-14.96-5.955-14.732-20.431-25.19-37.242-25.19-16.783 0-31.258 10.458-37.242 25.161-1.881 4.645-2.906 9.688-2.906 14.989v23.652z" fill="#365e7d" fill-rule="evenodd"/></g><g><path clip-rule="evenodd" d="m275.131 429.985c30.774-7.209 59.981-22.768 83.945-46.761 15.302-15.302 27.155-32.684 35.618-51.263l-23.223-12.111-20.003 12.111c-5.385 8.634-11.854 16.784-19.348 24.278-17.268 17.268-37.955 28.951-59.896 35.106-9.46 10.002-5.813 26.273 2.907 38.64z" fill="#dddaec" fill-rule="evenodd"/></g><g><path clip-rule="evenodd" d="m66.693 71.628 37.299 31.117 22.768-9.917 4.131-22.34-37.299-31.145-20.887 10.914z" fill="#f9f7f8" fill-rule="evenodd"/></g><g><path clip-rule="evenodd" d="m194.833 462.982h-141.675c-4.217 0-7.694 3.476-7.694 7.694v26.13c0 4.217 3.476 7.694 7.694 7.694h363.647c4.217 0 7.694-3.476 7.694-7.694v-26.13c0-4.217-3.476-7.694-7.694-7.694h-141.674z" fill="#22a6fe" fill-rule="evenodd"/></g><g><path clip-rule="evenodd" d="m74.216 13.184-36.758 44.054c-5.585 6.696-4.673 16.727 1.995 22.283 6.696 5.585 16.726 4.673 22.311-1.995l4.93-5.899 26.899-32.285 4.93-5.899c5.585-6.668 4.673-16.698-1.995-22.283-2.963-2.451-6.554-3.647-10.116-3.647h-.028c-4.532.001-9.034 1.938-12.168 5.671z" fill="#22a6fe" fill-rule="evenodd"/></g><g><path clip-rule="evenodd" d="m283.821 201.567-22.739 5.329-.655 22.711 20.231 16.869c7.722 6.44 18.607 4.787 25.702-2.308s5.385-19.291-2.308-25.703z" fill="#365e7d" fill-rule="evenodd"/></g><g><path clip-rule="evenodd" d="m235.153 238.525c5.784 4.816 14.475 4.046 19.291-1.738l5.984-7.181 23.394-28.039 5.984-7.181c4.816-5.756 4.046-14.447-1.738-19.263l-15.558-12.994-37.499 14.59-15.387 48.841z" fill="#f9f7f8" fill-rule="evenodd"/></g><g><path clip-rule="evenodd" d="m134.368 165.748 75.824 63.203c2.137 1.795 5.357 1.51 7.152-.655l2.28-2.736 52.886-63.431 2.28-2.736c1.795-2.166 1.51-5.386-.655-7.152l-20.744-17.297-84.315-70.269c-10.799-9.033-27.041-7.551-36.074 3.277l-2.109 2.536-26.899 32.257-2.137 2.565c-8.976 10.771-7.551 26.928 3.163 35.99 9.316 8.263 19.716 16.412 29.348 24.448z" fill="#22a6fe" fill-rule="evenodd"/></g><g><path clip-rule="evenodd" d="m457.296 288.62h-200.032c-2.792 0-5.101 2.508-5.101 5.557v32.228c0 3.049 2.308 5.557 5.101 5.557h221.117c2.792 0 5.072-2.508 5.072-5.557v-9.147c.001-15.758-11.767-28.638-26.157-28.638z" fill="#365e7d" fill-rule="evenodd"/></g><g><path clip-rule="evenodd" d="m483.454 326.404v-9.147c0-4.018-.741-7.836-2.109-11.284-4.046-10.201-13.307-17.354-24.049-17.354h-39.294c14.418 0 26.186 12.88 26.186 28.638v9.147c0 3.049-2.28 5.557-5.101 5.557h39.294c1.083 0 2.109-.399 2.963-1.054 1.284-.998 2.11-2.65 2.11-4.503z" fill="#2b4d66" fill-rule="evenodd"/></g><g><path clip-rule="evenodd" d="m275.131 406.305c0-5.272-1.026-10.344-2.906-14.96-5.955-14.732-20.431-25.19-37.242-25.19-5.784 0-11.312 1.254-16.299 3.476 9.489 4.246 17.068 12.053 20.972 21.713 1.881 4.616 2.906 9.688 2.906 14.96v23.68 32.998h32.569v-32.998z" fill="#2b4d66" fill-rule="evenodd"/></g><g><path clip-rule="evenodd" d="m424.499 496.806v-26.13c0-4.217-3.476-7.694-7.694-7.694h-32.569c4.217 0 7.694 3.476 7.694 7.694v26.13c0 4.217-3.476 7.694-7.694 7.694h32.569c4.217 0 7.694-3.476 7.694-7.694z" fill="#0593fc" fill-rule="evenodd"/></g><g><path clip-rule="evenodd" d="m98.521 33.444c5.585-6.668 4.673-16.698-1.995-22.283-2.963-2.451-6.554-3.647-10.116-3.647h-.028c-4.531 0-9.033 1.938-12.167 5.671l-14.817 17.752c3.106-3.704 7.608-5.614 12.139-5.614h.028c3.562 0 7.152 1.197 10.087 3.647 4.16 3.476 6.098 8.663 5.613 13.706-.313 3.02-1.482 6.012-3.562 8.549v-.028l9.888-11.854z" fill="#0593fc" fill-rule="evenodd"/></g><g><path clip-rule="evenodd" d="m253.389 134.945-84.315-70.269c-10.799-9.033-27.041-7.551-36.074 3.277l-2.109 2.536-12.196 14.647c3.02-3.391 6.753-5.813 10.828-7.181 8.178-2.793 17.61-1.396 24.705 4.502l84.315 70.298 18.493 15.387 2.251 1.909c2.137 1.767 2.422 4.987.655 7.124l-2.308 2.764h.028l14.846-17.81 2.28-2.736c1.795-2.166 1.51-5.386-.655-7.152z" fill="#0593fc" fill-rule="evenodd"/></g><g><path clip-rule="evenodd" d="m289.805 194.386c4.816-5.756 4.046-14.447-1.738-19.263l-15.558-12.994-14.846 17.81 15.558 12.994c3.077 2.565 4.73 6.24 4.873 9.973.142 3.277-.883 6.582-3.134 9.289l.028-.028 8.833-10.6z" fill="#dddaec" fill-rule="evenodd"/></g><g><path clip-rule="evenodd" d="m274.988 212.167s0 0-.028.028zm29.064 6.297-20.231-16.898-8.833 10.6-.028.028 20.231 16.869c5.556 4.645 8.007 12.281 6.269 18.835 1.767-.997 3.419-2.251 4.901-3.733 7.095-7.093 5.385-19.289-2.309-25.701z" fill="#2b4d66" fill-rule="evenodd"/></g><g><path clip-rule="evenodd" d="m130.891 70.488-37.299-31.145-8.833 10.629 37.299 31.116h-.029z" fill="#dddaec" fill-rule="evenodd"/></g><g><path clip-rule="evenodd" d="m45.921 320.648c9.004 9.004 20.203 14.504 31.885 16.499 13.421 2.308 27.497-.029 39.636-7.01 4.417-2.565 8.577-5.728 12.338-9.489 23.166-23.167 23.166-60.724 0-83.862-7.694-7.722-16.983-12.851-26.813-15.416-13.25-3.505-27.469-2.308-40.063 3.533-6.155 2.85-11.911 6.81-16.983 11.883-23.138 23.139-23.138 60.696 0 83.862z" fill="#365e7d" fill-rule="evenodd"/></g><g><path clip-rule="evenodd" d="m70.625 295.943c9.517 9.517 24.933 9.517 34.45 0 9.546-9.517 9.546-24.933 0-34.479-9.517-9.517-24.933-9.517-34.45 0-9.517 9.546-9.517 24.933 0 34.479z" fill="#f9f7f8" fill-rule="evenodd"/></g><g><path clip-rule="evenodd" d="m129.78 320.648c23.166-23.167 23.166-60.724 0-83.862-7.694-7.722-16.983-12.851-26.813-15.416-7.978-2.109-16.327-2.508-24.448-1.225 5.67 1.852 11.084 4.559 16.071 8.15 2.593 1.852 5.072 3.961 7.409 6.269 23.166 23.167 23.166 60.723 0 83.89-3.761 3.761-7.921 6.924-12.338 9.46-6.354 3.676-13.221 6.041-20.26 7.152 2.764.912 5.556 1.596 8.406 2.08 13.421 2.308 27.497-.029 39.636-7.01 4.415-2.563 8.576-5.726 12.337-9.488z" fill="#2b4d66" fill-rule="evenodd"/></g><g><path clip-rule="evenodd" d="m105.075 295.943c9.546-9.517 9.546-24.933 0-34.479-7.352-7.352-18.265-9.033-27.241-4.987 2.422 1.168 4.702 2.736 6.696 4.759 9.546 9.517 9.546 24.933 0 34.451-2.137 2.166-4.588 3.818-7.209 5.015 9.062 4.331 20.26 2.764 27.754-4.759z" fill="#dddaec" fill-rule="evenodd"/></g><g><path d="m87.85 246.825c-8.508 0-16.509 3.315-22.536 9.343-12.389 12.426-12.389 32.644.008 45.078 6.02 6.02 14.02 9.335 22.528 9.335 8.509 0 16.509-3.315 22.521-9.327 6.031-6.014 9.356-14.011 9.362-22.517.007-8.519-3.315-16.537-9.354-22.577-6.02-6.02-14.02-9.335-22.529-9.335zm11.922 43.815c-3.187 3.187-7.42 4.941-11.922 4.941-4.501 0-8.735-1.755-11.913-4.934-6.567-6.586-6.567-17.303-.008-23.881 3.186-3.186 7.42-4.941 11.921-4.941 4.502 0 8.735 1.755 11.922 4.941 3.203 3.204 4.966 7.451 4.962 11.96-.003 4.495-1.763 8.724-4.962 11.914z"/><path d="m240.279 409.26c-2.917-2.942-7.636-2.935-10.578-.017-2.941 2.916-2.934 7.693-.018 10.635 1.467 1.479 3.395 2.22 5.326 2.22 1.908 0 3.818-.724 5.28-2.174 2.941-2.916 2.962-7.665.046-10.606z"/><path d="m457.296 281.12h-76.821c-4.143 0-7.5 3.358-7.5 7.5s3.357 7.5 7.5 7.5h76.821c10.288 0 18.658 9.482 18.658 21.138v7.204h-216.29v-28.342h85.99c4.143 0 7.5-3.358 7.5-7.5s-3.357-7.5-7.5-7.5h-88.389c-6.948 0-12.601 5.857-12.601 13.057v32.228c0 7.2 5.652 13.057 12.601 13.057h79.755c-3.155 3.995-6.56 7.832-10.203 11.475-14.267 14.267-31.699 25.016-50.705 31.356-8.278-14.125-23.61-23.637-41.13-23.637-17.509 0-32.833 9.5-41.114 23.611-18.974-6.335-36.381-17.076-50.634-31.329-5.768-5.769-10.95-12.026-15.478-18.657 2.556-1.906 5.01-4.009 7.329-6.328 12.62-12.621 19.571-29.4 19.571-47.245 0-17.844-6.95-34.613-19.568-47.22-6.586-6.595-14.316-11.624-22.734-14.941 5.11-14.792 12.758-28.32 22.818-40.362l70.196 58.508c2.279 1.915 5.101 2.938 8.047 2.938.383 0 .768-.017 1.154-.052 1.998-.18 3.876-.827 5.525-1.857l10.261 8.567c3.963 3.299 8.78 4.908 13.569 4.908 6.075 0 12.104-2.59 16.28-7.606l1.184-1.42 14.467 12.065c4.596 3.832 10.214 5.711 15.931 5.711 7.062 0 14.273-2.871 19.879-8.477 4.604-4.605 6.971-10.874 6.664-17.654-.336-7.41-3.789-14.376-9.468-19.108l-14.482-12.096 1.179-1.414c3.62-4.327 5.333-9.823 4.823-15.477-.51-5.652-3.179-10.753-7.506-14.355l-10.295-8.598c.73-1.839 1.025-3.836.827-5.863-.326-3.347-1.937-6.357-4.472-8.424l-20.743-17.297-.001-.001-84.305-70.261c-6.75-5.646-15.321-8.319-24.149-7.53-7.426.666-14.243 3.723-19.592 8.702l-25.985-21.699.113-.135c8.249-9.851 6.935-24.586-2.941-32.858-4.776-3.984-10.835-5.866-17.054-5.304-6.219.564-11.837 3.506-15.82 8.281l-36.76 44.055c-3.981 4.774-5.867 10.828-5.308 17.045.56 6.218 3.493 11.831 8.258 15.801 4.356 3.634 9.661 5.407 14.939 5.407 6.679 0 13.315-2.841 17.926-8.345.003-.004.007-.008.01-.013l.119-.143 25.994 21.685c-7.45 11.649-6.783 26.683 1.305 37.573-19.007 22.579-32.254 49.465-38.603 78.337-5.712 3.065-11.005 6.985-15.717 11.697-12.623 12.608-19.575 29.38-19.575 47.226 0 17.845 6.951 34.624 19.575 47.248 9.163 9.152 20.346 15.072 32.123 17.787 8.559 16.447 19.613 31.499 32.897 44.785 22.701 22.702 50.843 38.96 81.692 47.267v19.689h-50.743c-4.143 0-7.5 3.358-7.5 7.5s3.357 7.5 7.5 7.5h280.215c.074 0 .193.119.193.193v26.13c0 .074-.119.194-.193.194h-363.647c-.074 0-.193-.12-.193-.194v-26.13c0-.074.119-.193.193-.193h48.612c4.143 0 7.5-3.358 7.5-7.5s-3.357-7.5-7.5-7.5h-48.612c-8.378 0-15.193 6.816-15.193 15.193v26.13c0 8.378 6.815 15.194 15.193 15.194h363.647c8.378 0 15.193-6.816 15.193-15.194v-26.13c0-8.377-6.815-15.193-15.193-15.193h-134.174v-19.659c30.897-8.311 59.059-24.58 81.748-47.297 14.43-14.431 26.206-30.921 35.062-49.066h78.942c6.933 0 12.572-5.857 12.572-13.057v-9.147c-.001-19.923-15.099-36.134-33.659-36.134zm-158.045-56.894c2.419 2.016 3.949 5.107 4.092 8.27.081 1.782-.25 4.333-2.286 6.369-4.026 4.025-10.673 5.955-15.596 1.851l-14.467-12.063 7.623-9.14 6.156-7.378zm-15.983-43.339c1.252 1.042 2.023 2.527 2.173 4.182.149 1.656-.344 3.256-1.396 4.513l-35.366 42.406c-2.145 2.574-6.141 2.928-8.721.779l-9.775-8.161 43.278-51.909zm-144.51-108.131c3.093-3.707 7.468-5.988 12.318-6.423.559-.05 1.114-.075 1.668-.075 4.229 0 8.269 1.453 11.527 4.179l103.203 86.018-54.344 65.182-103.204-86.019c-7.667-6.376-8.701-17.821-2.312-25.506zm-82.75-.038c-2.954 3.519-8.224 3.988-11.754 1.042-1.686-1.405-2.725-3.402-2.925-5.624-.2-2.229.47-4.394 1.887-6.092l36.759-44.055c1.419-1.701 3.428-2.749 5.657-2.951.261-.024.521-.036.779-.036 1.948 0 3.81.667 5.3 1.91 3.523 2.952 4 8.208 1.051 11.73zm21.241-2.051 17.304-20.752 25.775 21.524-17.291 20.741zm28.625 81.099 17.781 14.82c-11.331 13.621-20.125 29.324-25.806 46.064-3.277-.489-6.614-.739-9.988-.739-4.936 0-9.786.551-14.493 1.587 6.38-22.614 17.446-43.655 32.506-61.732zm-54.65 163.579c-9.788-9.788-15.179-22.8-15.179-36.639 0-13.837 5.39-26.84 15.179-36.617 9.787-9.788 22.799-15.179 36.637-15.179 13.836 0 26.839 5.39 36.612 15.175.002.002.004.004.007.007 9.785 9.773 15.175 22.776 15.175 36.613 0 13.839-5.391 26.851-15.179 36.639-20.185 20.185-53.046 20.183-73.252.001zm136.109 90.96v13.886c-26.782-7.913-51.207-22.392-71.085-42.271-9.846-9.847-18.353-20.747-25.398-32.517 8.177-.363 16.292-2.23 23.912-5.572 5.196 7.736 11.176 15.022 17.863 21.711 15.72 15.72 34.884 27.612 55.784 34.713-.699 3.242-1.076 6.602-1.076 10.05zm80.298 49.178h-65.298v-49.177c0-18.003 14.646-32.65 32.648-32.65 18.003 0 32.649 14.647 32.649 32.65v49.177zm86.137-77.559c-19.869 19.893-44.312 34.382-71.137 42.298v-13.917c0-3.438-.375-6.788-1.069-10.021 20.935-7.104 40.126-19.007 55.862-34.742 6.806-6.807 12.889-14.22 18.128-22.081h27.016c-7.661 14.074-17.312 26.975-28.8 38.463z"/></g></g></svg>